<?xml version="1.0" standalone="no"?>
<!DOCTYPE svg PUBLIC "-//W3C//DTD SVG 20010904//EN"
 "http://www.w3.org/TR/2001/REC-SVG-20010904/DTD/svg10.dtd">
<svg version="1.0" xmlns="http://www.w3.org/2000/svg"
 width="900.000000pt" height="900.000000pt" viewBox="0 0 900.000000 900.000000"
 preserveAspectRatio="xMidYMid meet">
<metadata>
Created by potrace 1.14, written by Peter Selinger 2001-2017
</metadata>
<g transform="translate(0.000000,900.000000) scale(0.100000,-0.100000)"
fill="#000000" stroke="none">
<path d="M4753 8730 c-23 -5 -392 -121 -820 -259 -777 -250 -1228 -394 -1483
-476 -1246 -398 -1288 -413 -1330 -455 -26 -26 -26 -66 0 -82 26 -16 26 -50 0
-73 -28 -26 -25 -60 7 -83 25 -17 86 -52 373 -212 250 -140 362 -203 480 -270
253 -145 323 -181 330 -173 4 4 12 43 18 86 18 121 71 206 198 317 170 150
546 352 969 520 266 106 748 270 794 270 l31 0 0 -63 0 -62 -67 -19 c-38 -10
-174 -54 -303 -96 -583 -191 -1033 -411 -1283 -624 -144 -124 -201 -216 -212
-341 l-7 -80 86 -48 86 -48 0 -513 0 -512 -87 -50 -88 -50 3 -40 c2 -21 23
-90 48 -152 l44 -114 0 -147 0 -147 -127 -20 c-79 -12 -141 -17 -163 -13 -19
4 -55 11 -80 14 -104 15 -132 24 -189 61 -34 22 -61 41 -61 44 0 3 49 69 108
147 119 157 153 210 131 201 -8 -3 -273 -154 -589 -336 -641 -368 -610 -346
-690 -507 -63 -126 -75 -186 -74 -360 1 -175 23 -273 101 -458 25 -59 42 -111
39 -115 -4 -4 -129 -82 -279 -173 -240 -146 -277 -172 -319 -223 -175 -218
-213 -542 -103 -874 27 -80 118 -285 151 -340 1 -2 76 -23 166 -47 153 -41
809 -216 1456 -389 155 -42 408 -110 562 -151 154 -41 406 -109 560 -150 154
-41 407 -109 563 -151 550 -147 1293 -346 1397 -374 58 -15 224 -60 370 -99
l266 -71 113 24 c63 14 119 30 126 38 7 7 262 288 566 623 304 336 789 871
1078 1190 289 318 642 707 784 863 208 230 257 289 257 312 0 26 -3 28 -48 32
l-48 3 -1348 -1436 -1347 -1435 -91 -22 -90 -22 -1882 496 c-1034 273 -2095
552 -2356 621 -261 69 -581 153 -710 187 l-235 61 -67 132 c-88 174 -112 276
-106 436 8 176 63 314 175 434 l48 51 2605 -609 2605 -610 117 21 117 22 813
822 c446 451 1061 1072 1365 1378 l553 557 0 65 c0 36 -1 66 -2 67 -2 0 -128
12 -280 27 l-277 28 -3 -27 c-2 -20 -306 -366 -1121 -1278 -615 -688 -1123
-1253 -1129 -1257 -5 -4 -41 -15 -79 -24 l-69 -18 -2313 644 c-1271 355 -2319
647 -2328 649 -38 12 -146 243 -174 372 -44 209 23 449 163 586 l39 38 2343
-609 2344 -609 96 21 97 21 998 1050 c548 578 1053 1106 1121 1175 l124 125 0
63 c0 34 -4 62 -9 62 -13 0 -1212 179 -1238 185 l-23 5 -2 308 -3 307 195 103
c107 57 231 123 275 146 44 24 130 69 190 101 123 64 245 129 350 185 39 21
183 97 320 170 138 72 257 138 265 146 11 11 15 40 16 120 l0 106 -30 23 c-17
13 -44 28 -59 34 -27 11 -559 177 -1192 373 -354 109 -535 165 -725 225 -80
24 -237 73 -350 108 -113 35 -272 84 -355 110 -82 26 -220 68 -305 95 -85 26
-258 80 -385 120 -207 66 -239 73 -325 76 -52 2 -114 -1 -137 -6z"/>
</g>
</svg>
